<?xml version="1.0" standalone="no"?><svg xmlns="http://www.w3.org/2000/svg" viewBox="0 0 1440 320"><path fill="#0099ff" fill-opacity="1" d="M0,128L34.3,154.7C68.6,181,137,235,206,234.7C274.3,235,343,181,411,170.7C480,160,549,192,617,218.7C685.7,245,754,267,823,234.7C891.4,203,960,117,1029,80C1097.1,43,1166,53,1234,85.3C1302.9,117,1371,171,1406,197.3L1440,224L1440,0L1405.7,0C1371.4,0,1303,0,1234,0C1165.7,0,1097,0,1029,0C960,0,891,0,823,0C754.3,0,686,0,617,0C548.6,0,480,0,411,0C342.9,0,274,0,206,0C137.1,0,69,0,34,0L0,0Z"></path></svg>